<?xml version="1.0" standalone="no"?>
<!DOCTYPE svg PUBLIC "-//W3C//DTD SVG 20010904//EN"
 "http://www.w3.org/TR/2001/REC-SVG-20010904/DTD/svg10.dtd">
<svg version="1.0" xmlns="http://www.w3.org/2000/svg"
 width="1024.000000pt" height="1024.000000pt" viewBox="0 0 1024.000000 1024.000000"
 preserveAspectRatio="xMidYMid meet">

<g transform="translate(0.000000,1024.000000) scale(0.100000,-0.100000)"
fill="#000000" stroke="none">
<path d="M1670 6936 c0 -9 25 -34 55 -56 52 -38 55 -43 55 -83 0 -62 -7 -84
-176 -530 -85 -224 -152 -412 -149 -417 4 -6 75 -10 164 -10 l158 0 83 233
c46 127 85 234 87 236 2 3 13 -4 24 -15 21 -21 121 -290 356 -949 204 -575
250 -707 258 -742 l7 -33 -641 0 -641 0 0 29 c0 42 48 193 68 213 17 17 142
31 184 20 10 -2 31 -28 45 -56 30 -60 57 -92 95 -112 29 -15 103 -22 115 -11
3 4 1 24 -5 46 -25 81 -12 122 46 147 47 19 88 58 113 106 17 34 19 62 19 340
0 295 -1 305 -22 348 -13 24 -40 58 -61 74 l-39 31 -496 3 -497 2 -45 -22
c-26 -14 -57 -41 -75 -66 l-30 -44 0 -316 c0 -310 0 -318 23 -359 12 -24 41
-55 64 -70 36 -25 53 -28 135 -31 82 -4 93 -6 93 -22 0 -10 -40 -121 -89 -247
-48 -125 -126 -326 -172 -446 -98 -257 -111 -273 -238 -326 -86 -35 -96 -48
-89 -107 l3 -29 460 0 460 0 3 48 c4 56 -9 77 -47 77 -57 0 -135 32 -173 70
-35 34 -38 43 -38 92 0 56 24 153 67 276 44 123 -35 112 778 112 l702 0 72
-195 c39 -107 71 -211 71 -231 0 -45 -40 -85 -108 -109 -76 -27 -77 -28 -80
-84 l-3 -51 88 0 c48 0 343 -2 655 -3 l568 -2 0 53 0 52 -55 24 c-121 54 -215
142 -274 256 -21 41 -75 170 -119 285 -179 468 -367 956 -472 1225 -61 157
-153 393 -205 525 -221 568 -306 780 -320 802 -38 58 -37 58 -442 61 -329 3
-373 1 -373 -12z"/>
<path d="M4132 5395 c-34 -8 -86 -27 -115 -42 -46 -25 -52 -32 -51 -58 1 -17
11 -51 22 -77 l21 -46 73 25 c128 45 272 32 312 -29 9 -14 19 -45 22 -71 l7
-47 -127 0 c-219 0 -333 -42 -384 -142 -67 -131 -21 -283 105 -344 52 -26 68
-29 153 -29 105 1 145 13 211 66 l39 31 0 -35 c0 -51 15 -58 117 -55 l88 3 0
300 c-1 330 -7 375 -62 447 -77 99 -253 141 -431 103z m288 -550 l0 -55 -56
-37 c-49 -32 -66 -38 -123 -41 -41 -2 -75 2 -91 10 -60 32 -64 124 -7 158 27
17 51 20 155 20 l122 0 0 -55z"/>
<path d="M5172 5399 c-18 -6 -56 -32 -84 -59 -29 -28 -53 -50 -55 -50 -2 0 -3
19 -3 43 0 66 -4 68 -111 65 l-94 -3 0 -425 0 -425 105 0 105 0 5 250 c5 244
6 251 32 307 33 72 78 98 168 98 60 0 61 0 76 35 7 19 14 61 14 94 0 49 -4 62
-19 71 -24 12 -94 12 -139 -1z"/>
<path d="M5681 5399 c-67 -12 -177 -63 -191 -90 -9 -15 -6 -32 14 -75 14 -30
31 -57 39 -60 8 -3 43 7 78 21 49 21 79 27 138 27 126 1 178 -34 189 -127 l5
-45 -122 0 c-219 0 -330 -43 -383 -149 -65 -128 -15 -281 111 -340 48 -22 70
-26 146 -26 99 0 172 24 216 71 31 33 37 30 41 -18 l3 -43 100 0 100 0 3 114
c5 196 -14 510 -34 565 -23 67 -86 128 -159 155 -67 25 -211 35 -294 20z m269
-553 c0 -50 -3 -57 -32 -79 -65 -49 -97 -59 -166 -55 -55 4 -68 8 -88 32 -41
47 -25 124 30 146 11 5 74 9 139 9 l117 1 0 -54z"/>
<path d="M6730 5401 c-58 -19 -111 -53 -142 -92 l-33 -41 -5 63 -5 64 -92 3
c-89 3 -93 2 -98 -20 -3 -13 -4 -205 -3 -428 l3 -405 105 0 105 0 5 270 c5
249 7 273 26 310 52 100 194 125 266 47 47 -50 48 -58 48 -329 0 -142 3 -268
6 -281 6 -22 10 -23 108 -20 l101 3 3 307 c2 292 1 309 -19 364 -45 119 -138
184 -274 190 -44 2 -91 0 -105 -5z"/>
<path d="M7582 5400 c-203 -43 -322 -206 -310 -425 7 -112 37 -186 104 -253
77 -77 145 -105 264 -110 114 -5 164 7 225 54 l46 35 -6 -63 c-14 -135 -63
-213 -152 -237 -93 -26 -220 -6 -319 50 -49 28 -52 28 -68 11 -26 -30 -49
-109 -42 -147 8 -42 30 -58 123 -91 57 -20 87 -24 189 -24 219 0 341 64 411
216 50 110 56 168 57 582 1 211 -2 388 -5 393 -3 6 -44 9 -90 7 l-84 -3 -3
-35 c-1 -19 -5 -45 -7 -57 -5 -22 -7 -21 -40 16 -63 69 -186 103 -293 81z
m182 -181 c151 -42 210 -277 97 -390 -77 -77 -211 -79 -300 -3 -48 42 -73 102
-74 179 -1 161 123 257 277 214z"/>
<path d="M8467 5399 c-50 -12 -96 -35 -130 -68 -102 -94 -94 -280 14 -360 22
-16 86 -43 142 -61 124 -39 185 -72 193 -105 30 -120 -155 -141 -311 -36 -25
17 -50 31 -55 31 -14 0 -80 -105 -80 -128 0 -25 60 -74 125 -102 103 -44 265
-50 370 -14 96 34 165 130 165 230 0 130 -81 211 -275 274 -104 34 -144 56
-151 86 -9 35 10 72 43 85 46 18 146 5 210 -27 32 -16 61 -30 64 -32 8 -3 59
110 59 132 0 27 -77 74 -150 90 -75 17 -173 19 -233 5z"/>
<path d="M9280 5399 c-30 -5 -84 -24 -120 -42 -75 -37 -76 -44 -35 -134 l24
-53 68 27 c51 19 86 26 143 26 125 0 177 -36 188 -128 l5 -45 -120 0 c-145 0
-210 -11 -283 -48 -100 -50 -146 -154 -122 -272 16 -76 57 -129 128 -165 52
-27 67 -30 148 -30 100 0 173 24 217 71 31 33 37 30 41 -18 l3 -43 95 0 95 0
3 270 c2 163 -2 295 -8 334 -29 170 -126 247 -323 256 -51 2 -117 0 -147 -6z
m270 -553 c0 -50 -3 -57 -32 -79 -59 -44 -95 -57 -158 -57 -55 0 -65 3 -91 29
-47 47 -34 127 25 151 11 5 74 9 139 9 l117 1 0 -54z"/>
</g>
</svg>
